<?xml version="1.0" encoding="utf-8"?>
<!-- Generator: Adobe Illustrator 16.0.0, SVG Export Plug-In . SVG Version: 6.00 Build 0)  -->
<!DOCTYPE svg PUBLIC "-//W3C//DTD SVG 1.1//EN" "http://www.w3.org/Graphics/SVG/1.1/DTD/svg11.dtd">
<svg version="1.1" id="Layer_1" xmlns="http://www.w3.org/2000/svg" xmlns:xlink="http://www.w3.org/1999/xlink" x="0px" y="0px"
	 width="640px" height="480px" viewBox="0 0 640 480" enable-background="new 0 0 640 480" xml:space="preserve">
<title>black wine bottle</title>
<g>
	<title>Layer 1</title>
	<g id="layer1">
		<g id="layer1-7">
			<g id="g2386">
				<rect id="rect2382" x="320.555" y="194.996" width="33.723" height="236.054"/>
				<rect id="rect2384" x="301.286" y="36.021" width="19.269" height="98.757"/>
				<path id="path2398" d="M284.409,18.547c-0.878,0.667-1.358,2.296-1.554,5.256c-0.098,1.485-0.402,2.968-0.672,3.293
					c-0.299,0.36-0.572,2.96-0.698,6.665c-0.174,5.139-0.091,6.313,0.514,7.588c0.318,0.67,0.491,1.508,0.514,5.545l-2.875,79.56
					c0.206,3.077-0.523,5.621-2.053,8.261c-1.236,2.001-3.245,4.428-7.165,8.945c-15.667,16.525-23.295,37.714-24.712,60.081
					l0.066,223.316c0.748,5.79,3.697,14.822,8.338,16.769h96.95c4.642-1.946,7.59-10.979,8.339-16.769l0.065-223.316
					c-1.416-22.366-9.045-43.556-24.711-60.081c-4.576-5.271-6.548-7.697-7.726-9.921c-1.317-2.086-1.386-4.318-1.472-6.688
					l-2.896-80.157c0.023-4.038,0.196-4.875,0.514-5.545c0.605-1.274,0.689-2.449,0.514-7.588c-0.125-3.705-0.398-6.305-0.697-6.665
					c-0.27-0.325-0.574-1.808-0.672-3.293c-0.195-2.959-0.677-4.589-1.555-5.256C308.689,17.616,296.484,17.529,284.409,18.547
					L284.409,18.547z M314.772,44.307h2.107v75.875h-2.107V44.307z M338.378,207.858v219.614h-2.529V207.858H338.378z
					 M347.229,207.858v219.614h-5.479V207.858H347.229z"/>
			</g>
		</g>
	</g>
</g>
</svg>
