<?xml version="1.0" encoding="utf-8"?>
<!-- Generator: Adobe Illustrator 16.0.0, SVG Export Plug-In . SVG Version: 6.00 Build 0)  -->
<!DOCTYPE svg PUBLIC "-//W3C//DTD SVG 1.1//EN" "http://www.w3.org/Graphics/SVG/1.1/DTD/svg11.dtd">
<svg version="1.1" id="Layer_1" xmlns="http://www.w3.org/2000/svg" xmlns:xlink="http://www.w3.org/1999/xlink" x="0px" y="0px"
	 width="512px" height="512px" viewBox="0 0 512 512" enable-background="new 0 0 512 512" xml:space="preserve">
<path d="M261.5,269.2c10.1-6.7,23.1-15.2,44.5-30.5c18.6-13.2,49.9-36.4,49.9-97.4c0-49.3-28.7-93.3-28.7-93.3H160.9
	c0,0-28.8,44.4-28.8,93.8c0,61,31.2,84.101,49.7,97.3c21.4,15.2,35,24.601,43.7,30.301c5,3.3,10.5,14.1,10.5,18.6v160h-73v16h160
	v-16h-71V288C252,283,256.6,272.5,261.5,269.2z M172.1,64H316c7.4,0,24,44.5,24,77.3c0,0.9,0,1.8,0,2.7H148.1c0-0.7,0-1.5,0-2.2
	C148.1,108.9,164.7,77,172.1,64z"/>
</svg>
