<?xml version="1.0" encoding="utf-8"?>
<!-- Generator: Adobe Illustrator 16.0.0, SVG Export Plug-In . SVG Version: 6.00 Build 0)  -->
<!DOCTYPE svg PUBLIC "-//W3C//DTD SVG 1.1//EN" "http://www.w3.org/Graphics/SVG/1.1/DTD/svg11.dtd">
<svg version="1.1" id="Layer_1" xmlns="http://www.w3.org/2000/svg" xmlns:xlink="http://www.w3.org/1999/xlink" x="0px" y="0px"
	 width="841.89px" height="595.28px" viewBox="0 0 841.89 595.28" enable-background="new 0 0 841.89 595.28" xml:space="preserve">
<path fill-rule="evenodd" clip-rule="evenodd" d="M477.606,448.147c-37.112,4.443-74.219,4.349-111.319,0.022
	c-0.139-0.82-0.277-1.641-0.416-2.461c2.945-0.896,5.838-2.069,8.846-2.63c7.01-1.307,14.171-1.91,21.096-3.541
	c11.968-2.818,18.67-9.953,19.583-22.999c2.381-34.003,1.873-67.831-3.138-101.592c-1.517-10.218-6.164-18.182-14.571-23.94
	c-7.413-5.077-15.128-9.719-22.454-14.912c-5.82-4.125-11.759-8.292-16.76-13.32c-12.706-12.775-13.43-29.035-12.046-45.709
	c1.91-23.01,8.948-44.61,18.019-65.649c1.846-4.283,1.955-4.269,9.075-3.768c-1.104,3.673-2.112,7.239-3.248,10.766
	c-4.942,15.338-10.845,30.447-14.536,46.079c-2.158,9.141-1.911,19.241-0.789,28.677c1.995,16.773,11.314,29.503,26.256,37.295
	c27.881,14.539,56.027,14.348,83.459-1.11c15.964-8.995,23.813-23.67,25.396-41.768c1.353-15.455-2.429-30.075-7.421-44.473
	c-3.541-10.211-7.207-20.379-10.777-30.58c-0.533-1.526-0.848-3.13-1.256-4.671c5.303-1.724,7.724,0.356,9.675,5.063
	c8.452,20.393,15.505,41.15,17.054,63.33c0.542,7.754,0.463,15.656-0.377,23.377c-1.184,10.881-6.656,19.991-15.139,26.715
	c-7.801,6.182-15.953,12.16-24.678,16.889c-18,9.757-26.083,24.444-27.491,44.713c-2.092,30.11-3.517,60.117-0.845,90.252
	c0.906,10.228,5.77,17.105,15.306,19.929c7.749,2.295,15.897,3.224,23.854,4.83c3.371,0.68,6.705,1.543,10.057,2.323
	C477.885,446.238,477.746,447.192,477.606,448.147z"/>
</svg>
