<?xml version="1.0" encoding="utf-8"?>
<!-- Generator: Adobe Illustrator 16.0.0, SVG Export Plug-In . SVG Version: 6.00 Build 0)  -->
<!DOCTYPE svg PUBLIC "-//W3C//DTD SVG 1.1//EN" "http://www.w3.org/Graphics/SVG/1.1/DTD/svg11.dtd">
<svg version="1.1" id="Layer_1" xmlns="http://www.w3.org/2000/svg" xmlns:xlink="http://www.w3.org/1999/xlink" x="0px" y="0px"
	 width="841.89px" height="595.28px" viewBox="0 0 841.89 595.28" enable-background="new 0 0 841.89 595.28" xml:space="preserve">
<path fill-rule="evenodd" clip-rule="evenodd" fill="#FFFFFF" d="M227.74,163.224c0.815,0.604,1.335,0.991,1.978,1.468
	c-0.216,0.398-0.417,0.77-0.674,1.245C228.082,165.265,227.965,164.412,227.74,163.224z"/>
<path fill-rule="evenodd" clip-rule="evenodd" fill="#FFFFFF" d="M327.472,185.553c0.48-0.778,0.96-1.557,1.44-2.334
	c0.143,0.098,0.285,0.197,0.427,0.295c-0.588,0.711-1.177,1.421-1.766,2.132L327.472,185.553z"/>
<path fill-rule="evenodd" clip-rule="evenodd" fill="#FFFFFF" d="M377.05,378.345c-1.018-0.107-1.686-0.177-2.615-0.273
	c0.335-0.468,0.448-0.81,0.644-0.866C375.854,376.979,376.365,377.399,377.05,378.345z"/>
<path fill-rule="evenodd" clip-rule="evenodd" d="M396.336,88.28c2.907,6.81,8.378,11.836,12.439,17.844
	c0.826,1.224,2.367,1.032,3.641,1.356c10.281,2.619,20.59,5.146,30.82,7.953c4.982,1.367,5.398,3.084,2.133,7.293
	c-1.832,2.362-2.192,4.168-0.889,7.353c3.509,8.576,5.623,17.726,10.974,25.525c0.353,0.514,0.728,1.381,0.53,1.843
	c-1.699,3.957-5.98,3.797-9.124,5.399c-2.339,1.192-3.569-0.945-4.569-2.717c-2.724-4.824-8.345-6.668-13.505-3.987
	c-7.227,3.754-14.364,7.693-21.413,11.772c-4.959,2.871-6.27,11.163-1.865,14.791c4.969,4.093,3.828,8.077,1.781,12.815
	c-1.519,3.518-4.62,6.82-2.955,11.087c2.936,7.522,3.39,16.082,11.978,20.913c8.93,5.023,16.976,11.61,25.488,17.397
	c1.463,0.994,2.5,2.112,3.156,3.695c5.536,13.345,11.144,26.661,16.584,40.045c1.441,3.545,4.345,5.894,6.635,8.655
	c7.098,8.563,14.505,16.868,24.552,22.32c2.375,1.289,4.572,1.967,7.063,1.537c6.353-1.097,12.688-2.302,19.008-3.575
	c3.489-0.703,6.363-0.341,9.014,2.528c2.54,2.749,0.525,4.934-0.079,7.338c-1.004,3.99-5.076,8.271-3.263,11.538
	c1.693,3.049,6.81,4.307,10.542,6.097c16.201,7.768,32.434,15.473,48.702,23.098c1.609,0.754,2.725,1.717,3.671,3.155
	c5.39,8.189,10.855,16.328,16.261,24.507c1.718,2.6,0.115,12.874-2.359,14.692c-2.032,1.494-3.873,0.645-5.184-1.15
	c-7.832-10.729-18.188-18.272-29.911-24.22c-5.579-2.831-16.666,1.382-18.441,7.424c-1.402,4.77-2.329,9.688-3.9,14.396
	c-1.004,3.008,0.105,4.831,2.243,6.436c2.654,1.99,5.212,4.242,8.15,5.693c5.041,2.49,7.069,6.187,6.11,11.646
	c-0.057,0.323-0.068,0.679,0.002,0.997c2.263,10.195-2.309,15.967-11.967,18.338c-2.148,0.527-2.964,1.75-3.187,3.834
	c-0.246,2.295-1.108,4.556-1.133,6.838c-0.095,9.062-6.631,14.446-11.519,20.791c-1.896,2.461-4.391,4.522-5.215,7.709
	c-5.667,0-11.333,0-17,0c-1.496-9.14-0.759-18.004,1.963-26.944c1.484-4.874,3.589-8.384,8.332-10.18
	c3.487-1.32,4.168-3.292,2.775-6.989c-4.621-12.273-8.813-24.709-13.148-37.09c-0.975-2.785-1.908-5.094-5.397-2.252
	c-1.445,1.177-3.016,0.002-4.534-0.882c-8.322-4.842-14.706-11.248-16.866-20.937c-0.849-3.802-2.722-5.341-6.563-4.755
	c-6.451,0.983-11.284-0.822-15.125-6.751c-3.936-6.073-9.207-11.275-13.814-16.924c-1.258-1.541-2.644-2.482-4.673-2.304
	c-0.33,0.028-0.677-0.053-0.997,0.01c-12.996,2.493-22.121-3.023-30.522-12.716c-9.902-11.426-21.24-21.607-31.952-32.331
	c-1.527-1.528-2.914-3.264-5.454-2.961c-8.598,1.022-13.287-3.698-18.422-10.159c-13.323-16.765-19.291-36.54-25.509-56.317
	c-1.163-3.701-3.03-5.655-6.741-7.008c-11.378-4.147-22.599-8.738-33.802-13.352c-2.192-0.902-3.484-0.721-5.224,0.896
	c-5.467,5.076-11.256,9.807-16.697,14.909c-2.779,2.606-6.407,2.502-9.584,3.773c-3.052,1.221-6.441,1.571-9.58,2.613
	c-3.599,1.194-4.929-0.521-5.429-3.662c-0.078-0.488-0.012-0.998-0.036-1.497c-0.403-8.535-1.153-9.817-9.445-10.011
	c-5.432-0.127-6.846-2.954-7.529-7.273c-1.032-6.528-1.977-13.073-3.189-19.567c-0.409-2.193-0.892-4.491-3.401-5.743
	c-2.934-1.463-2.659-3.771-1.072-6.269c2.137-3.362,3.957-6.938,6.244-10.188c1.676-2.382,1.577-4.481,0.497-6.98
	c-2.371-5.483-4.292-11.179-6.927-16.526c-2.01-4.079-0.201-5.711,3.101-7.263c4.747-2.23,9.867-2.648,14.927-3.337
	c3.768-0.513,7.58-0.688,11.355-1.155c4.199-0.521,7.741-2.07,10.693-5.472c4.03-4.643,8.737-8.69,12.946-13.188
	c2.12-2.266,3.633-2.247,5.635,0.049c4.762,5.46,9.664,10.799,14.806,16.516c2.471-6.383,5.127-12.291,7.011-18.437
	c1.322-4.313,3.569-5.085,7.414-3.831c5.364,1.749,10.778,3.345,16.146,5.079c2.399,0.775,3.404,0.383,2.88-2.433
	c-0.33-1.772,0.006-3.658-0.11-5.483c-0.192-3.006,0.763-4.662,4.135-4.778c4.174-0.143,6.914-1.92,5.883-6.799
	c-0.707-3.345,1.485-4.467,4.128-4.931c13.836-2.428,27.683-4.799,41.535-7.136c1.453-0.245,3.14,0.156,3.339-2.036
	C388.336,88.28,392.336,88.28,396.336,88.28z"/>
</svg>
