<?xml version="1.0"?><svg width="640" height="480" xmlns="http://www.w3.org/2000/svg">
 <title>black wine bottle</title>
 <metadata id="metadata7">image/svg+xml</metadata>
 <g>
  <title>Layer 1</title>
  <g id="layer1">
   <g id="layer1-7">
    <g id="g2386">
     <rect transform="matrix(0.421524, 0, 0, 0.421524, -268.811, 1025.14)" fill="#000000" fill-rule="evenodd" y="-1981.248673" x="846.116017" height="560" width="80" id="rect2382"/>
     <rect transform="matrix(0.421524, 0, 0, 0.421524, -268.811, 1025.14)" fill="#000000" fill-rule="evenodd" id="rect2384" width="45.714287" height="234.28572" x="800.401717" y="-2358.391529"/>
     <path fill="#000000" id="path2398" d="m51.701118,13.546603c-0.87804,0.667378 -1.358582,2.29667 -1.554165,5.255879c-0.098206,1.484907 -0.402126,2.968164 -0.671906,3.293161c-0.298862,0.360086 -0.572422,2.960344 -0.698051,6.66535c-0.174507,5.138977 -0.091049,6.312988 0.513428,7.58744c0.318245,0.669949 0.491066,1.508266 0.513828,5.545677l-2.874794,79.559944c0.206127,3.077141 -0.522682,5.620705 -2.05323,8.261093c-1.235504,2.001419 -3.244484,4.428467 -7.164246,8.945145c-15.667227,16.524658 -23.295546,37.714172 -24.711863,60.080276l0.065761,223.315582c0.74819,5.790894 3.696752,14.822479 8.338176,16.769043l96.950603,0c4.641388,-1.946564 7.590378,-10.978149 8.338577,-16.769043l0.065758,-223.315582c-1.416321,-22.366104 -9.045067,-43.555618 -24.711861,-60.080276c-4.575233,-5.27153 -6.547134,-7.697037 -7.724854,-9.920959c-1.318115,-2.086098 -1.385544,-4.318558 -1.471115,-6.687988l-2.896721,-80.157234c0.022774,-4.037411 0.196022,-4.875729 0.51384,-5.545677c0.604889,-1.274452 0.688347,-2.448463 0.513832,-7.58744c-0.126038,-3.705006 -0.39917,-6.305264 -0.698486,-6.66535c-0.269318,-0.324997 -0.573257,-1.808254 -0.671463,-3.293161c-0.19558,-2.959209 -0.676567,-4.588501 -1.554581,-5.255879c-12.076241,-0.930524 -24.281048,-1.017381 -36.356468,0l0,0zm30.362793,25.760221l2.10762,0l0,75.87458l-2.10762,0l0,-75.87458zm23.605797,163.551636l0,219.614197l-2.529144,0l0,-219.614197l2.529144,0zm8.852005,0l0,219.614197l-5.479813,0l0,-219.614197l5.479813,0z"/>
    </g>
   </g>
  </g>
 </g>
</svg>